<?xml version="1.0" encoding="UTF-8"?><svg xmlns="http://www.w3.org/2000/svg" xmlns:xlink="http://www.w3.org/1999/xlink" width="595.5" zoomAndPan="magnify" viewBox="0 0 595.5 842.249979" height="842.249979" preserveAspectRatio="xMidYMid meet" version="1.0"><defs><clipPath id="clip-0"><path d="M 49 59.785156 L 594.984375 59.785156 L 594.984375 794.746094 L 49 794.746094 Z M 49 59.785156 " clip-rule="nonzero"/></clipPath><clipPath id="clip-1"><path d="M 0.015625 487 L 114 487 L 114 537 L 0.015625 537 Z M 0.015625 487 " clip-rule="nonzero"/></clipPath><clipPath id="clip-2"><path d="M 0.015625 666 L 114 666 L 114 716 L 0.015625 716 Z M 0.015625 666 " clip-rule="nonzero"/></clipPath><clipPath id="clip-3"><path d="M 0.015625 139 L 114 139 L 114 189 L 0.015625 189 Z M 0.015625 139 " clip-rule="nonzero"/></clipPath><clipPath id="clip-4"><path d="M 0.015625 318 L 114 318 L 114 368 L 0.015625 368 Z M 0.015625 318 " clip-rule="nonzero"/></clipPath></defs><path fill="rgb(100%, 53.729248%, 47.44873%)" d="M 276.839844 368.292969 L 271.828125 258.660156 C 271.660156 255.039062 268.667969 252.1875 265.039062 252.1875 C 261.214844 252.1875 258.148438 255.351562 258.261719 259.175781 L 260.789062 344.460938 C 260.828125 345.789062 259.757812 346.890625 258.429688 346.890625 C 257.144531 346.890625 256.097656 345.871094 256.066406 344.589844 L 253.933594 257.757812 C 253.859375 254.660156 251.324219 252.1875 248.226562 252.1875 C 245.042969 252.1875 242.480469 254.78125 242.515625 257.960938 L 243.464844 344.507812 C 243.480469 345.820312 242.417969 346.890625 241.105469 346.890625 C 239.808594 346.890625 238.75 345.84375 238.742188 344.542969 L 238.226562 257.863281 C 238.210938 254.730469 235.660156 252.1875 232.519531 252.1875 C 229.382812 252.1875 226.832031 254.722656 226.808594 257.855469 L 226.148438 344.550781 C 226.132812 345.84375 225.078125 346.890625 223.78125 346.890625 C 222.46875 346.890625 221.40625 345.820312 221.417969 344.5 L 222.519531 257.96875 C 222.558594 254.789062 219.992188 252.1875 216.8125 252.1875 C 213.714844 252.1875 211.179688 254.652344 211.101562 257.75 L 208.824219 344.589844 C 208.789062 345.871094 207.738281 346.890625 206.464844 346.890625 C 205.128906 346.890625 204.058594 345.789062 204.105469 344.453125 L 206.796875 258.449219 C 206.90625 255.027344 204.15625 252.1875 200.734375 252.1875 C 197.492188 252.1875 194.820312 254.738281 194.667969 257.976562 L 189.625 368.292969 C 188.890625 384.390625 201.75 397.84375 217.867188 397.84375 L 220.972656 397.84375 L 216.007812 638.640625 C 215.808594 648.066406 223.523438 655.859375 233.230469 655.859375 C 242.941406 655.859375 250.65625 648.066406 250.457031 638.640625 L 245.492188 397.84375 L 248.597656 397.84375 C 264.714844 397.84375 277.574219 384.390625 276.839844 368.292969 " fill-opacity="1" fill-rule="nonzero"/><path fill="rgb(100%, 53.729248%, 47.44873%)" d="M 388.925781 325.015625 C 388.925781 280.441406 364.703125 244.308594 334.816406 244.308594 C 304.925781 244.308594 280.703125 280.441406 280.703125 325.015625 C 280.703125 363.238281 298.511719 395.257812 322.433594 403.605469 L 317.589844 638.640625 C 317.390625 648.066406 325.105469 655.859375 334.816406 655.859375 C 344.523438 655.859375 352.238281 648.066406 352.039062 638.640625 L 347.1875 403.605469 C 371.117188 395.257812 388.925781 363.238281 388.925781 325.015625 " fill-opacity="1" fill-rule="nonzero"/><path fill="rgb(100%, 53.729248%, 47.44873%)" d="M 455.96875 224.773438 C 422.574219 224.773438 396.148438 253.015625 398.378906 286.324219 L 410.175781 462.8125 L 419.894531 462.8125 L 416.273438 638.640625 C 416.074219 648.066406 423.78125 655.859375 433.496094 655.859375 C 443.207031 655.859375 450.914062 648.066406 450.722656 638.640625 L 447.09375 462.8125 L 450.722656 462.8125 L 455.96875 224.773438 " fill-opacity="1" fill-rule="nonzero"/><g clip-path="url(#clip-0)"><path fill="rgb(100%, 53.729248%, 47.44873%)" d="M 63.589844 715.285156 L 63.589844 734.402344 C 63.589844 760.0625 84.46875 780.933594 110.121094 780.933594 L 535.445312 780.933594 C 561.097656 780.933594 581.972656 760.0625 581.972656 734.402344 L 581.972656 120.070312 C 581.972656 94.421875 561.097656 73.558594 535.445312 73.558594 L 110.121094 73.558594 C 84.46875 73.558594 63.589844 94.421875 63.589844 120.070312 L 63.589844 139.222656 L 88.941406 139.222656 C 102.46875 139.222656 113.484375 150.238281 113.484375 163.769531 C 113.484375 170.332031 110.925781 176.496094 106.269531 181.117188 C 101.679688 185.75 95.507812 188.304688 88.941406 188.304688 L 63.589844 188.304688 L 63.589844 318.207031 L 88.941406 318.207031 C 102.46875 318.207031 113.484375 329.222656 113.484375 342.746094 C 113.484375 349.316406 110.925781 355.480469 106.261719 360.101562 C 101.679688 364.726562 95.507812 367.289062 88.941406 367.289062 L 63.589844 367.289062 L 63.589844 487.203125 L 88.941406 487.203125 C 102.46875 487.203125 113.484375 498.210938 113.484375 511.742188 C 113.484375 518.320312 110.925781 524.492188 106.261719 529.121094 C 101.65625 533.734375 95.492188 536.285156 88.941406 536.285156 L 63.589844 536.285156 L 63.589844 666.203125 L 88.941406 666.203125 C 102.46875 666.203125 113.484375 677.214844 113.484375 690.75 C 113.484375 697.296875 110.925781 703.460938 106.277344 708.105469 C 101.65625 712.734375 95.492188 715.285156 88.941406 715.285156 Z M 535.445312 794.535156 L 110.121094 794.535156 C 76.96875 794.535156 49.988281 767.5625 49.988281 734.402344 L 49.988281 708.484375 C 49.988281 704.726562 53.039062 701.683594 56.789062 701.683594 L 88.941406 701.683594 C 91.855469 701.683594 94.601562 700.546875 96.660156 698.488281 C 98.734375 696.417969 99.878906 693.664062 99.878906 690.75 C 99.878906 684.714844 94.976562 679.804688 88.941406 679.804688 L 56.789062 679.804688 C 53.039062 679.804688 49.988281 676.761719 49.988281 673.003906 L 49.988281 529.484375 C 49.988281 525.730469 53.039062 522.6875 56.789062 522.6875 L 88.941406 522.6875 C 91.855469 522.6875 94.601562 521.546875 96.660156 519.492188 C 98.742188 517.417969 99.878906 514.679688 99.878906 511.742188 C 99.878906 505.714844 94.976562 500.804688 88.941406 500.804688 L 56.789062 500.804688 C 53.039062 500.804688 49.988281 497.761719 49.988281 494.003906 L 49.988281 360.488281 C 49.988281 356.734375 53.039062 353.691406 56.789062 353.691406 L 88.941406 353.691406 C 91.855469 353.691406 94.59375 352.550781 96.644531 350.488281 C 98.742188 348.40625 99.878906 345.667969 99.878906 342.746094 C 99.878906 336.71875 94.976562 331.808594 88.941406 331.808594 L 56.789062 331.808594 C 53.039062 331.808594 49.988281 328.765625 49.988281 325.007812 L 49.988281 181.503906 C 49.988281 177.75 53.039062 174.707031 56.789062 174.707031 L 88.941406 174.707031 C 91.855469 174.707031 94.59375 173.566406 96.644531 171.503906 C 98.742188 169.421875 99.878906 166.683594 99.878906 163.769531 C 99.878906 157.734375 94.976562 152.824219 88.941406 152.824219 L 56.789062 152.824219 C 53.039062 152.824219 49.988281 149.78125 49.988281 146.023438 L 49.988281 120.070312 C 49.988281 86.925781 76.96875 59.960938 110.121094 59.960938 L 535.445312 59.960938 C 568.597656 59.960938 595.578125 86.925781 595.578125 120.070312 L 595.578125 734.402344 C 595.578125 767.5625 568.597656 794.535156 535.445312 794.535156 " fill-opacity="1" fill-rule="nonzero"/></g><g clip-path="url(#clip-1)"><path fill="rgb(100%, 53.729248%, 47.44873%)" d="M 24.625 500.8125 C 18.597656 500.8125 13.683594 505.722656 13.683594 511.75 C 13.683594 517.78125 18.597656 522.6875 24.625 522.6875 L 88.941406 522.6875 C 94.976562 522.6875 99.878906 517.78125 99.878906 511.75 C 99.878906 505.722656 94.976562 500.8125 88.941406 500.8125 Z M 88.941406 536.285156 L 24.625 536.285156 C 11.097656 536.285156 0.0820312 525.28125 0.0820312 511.75 C 0.0820312 498.226562 11.097656 487.210938 24.625 487.210938 L 88.941406 487.210938 C 102.476562 487.210938 113.484375 498.226562 113.484375 511.75 C 113.484375 525.28125 102.476562 536.285156 88.941406 536.285156 " fill-opacity="1" fill-rule="nonzero"/></g><g clip-path="url(#clip-2)"><path fill="rgb(100%, 53.729248%, 47.44873%)" d="M 24.625 679.804688 C 18.597656 679.804688 13.683594 684.714844 13.683594 690.742188 C 13.683594 696.773438 18.597656 701.675781 24.625 701.675781 L 88.941406 701.675781 C 94.976562 701.675781 99.878906 696.773438 99.878906 690.742188 C 99.878906 684.714844 94.976562 679.804688 88.941406 679.804688 Z M 88.941406 715.277344 L 24.625 715.277344 C 11.097656 715.277344 0.0820312 704.273438 0.0820312 690.742188 C 0.0820312 677.214844 11.097656 666.203125 24.625 666.203125 L 88.941406 666.203125 C 102.476562 666.203125 113.484375 677.214844 113.484375 690.742188 C 113.484375 704.273438 102.476562 715.277344 88.941406 715.277344 " fill-opacity="1" fill-rule="nonzero"/></g><g clip-path="url(#clip-3)"><path fill="rgb(100%, 53.729248%, 47.44873%)" d="M 24.625 152.824219 C 18.597656 152.824219 13.683594 157.726562 13.683594 163.761719 C 13.683594 169.789062 18.597656 174.699219 24.625 174.699219 L 88.941406 174.699219 C 94.976562 174.699219 99.878906 169.789062 99.878906 163.761719 C 99.878906 157.726562 94.976562 152.824219 88.941406 152.824219 Z M 88.941406 188.296875 L 24.625 188.296875 C 11.097656 188.296875 0.0820312 177.285156 0.0820312 163.761719 C 0.0820312 150.230469 11.097656 139.222656 24.625 139.222656 L 88.941406 139.222656 C 102.476562 139.222656 113.484375 150.230469 113.484375 163.761719 C 113.484375 177.285156 102.476562 188.296875 88.941406 188.296875 " fill-opacity="1" fill-rule="nonzero"/></g><g clip-path="url(#clip-4)"><path fill="rgb(100%, 53.729248%, 47.44873%)" d="M 24.625 331.816406 C 18.597656 331.816406 13.683594 336.71875 13.683594 342.753906 C 13.683594 348.785156 18.597656 353.691406 24.625 353.691406 L 88.941406 353.691406 C 94.976562 353.691406 99.878906 348.785156 99.878906 342.753906 C 99.878906 336.71875 94.976562 331.816406 88.941406 331.816406 Z M 88.941406 367.289062 L 24.625 367.289062 C 11.097656 367.289062 0.0820312 356.285156 0.0820312 342.753906 C 0.0820312 329.222656 11.097656 318.214844 24.625 318.214844 L 88.941406 318.214844 C 102.476562 318.214844 113.484375 329.222656 113.484375 342.753906 C 113.484375 356.285156 102.476562 367.289062 88.941406 367.289062 " fill-opacity="1" fill-rule="nonzero"/></g></svg>